PathFileType  4	(X/Y/Z) C:\Users\antoi\Documents\MyRepositories\mobilecap\ResultsAnalysis
DataRate	CameraRate	NumFrames	NumMarkers	Units	OrigDataRate	OrigDataStartFrame	OrigNumFrames
100.0	100.0	4	51	mm	100.0	209	278
Frame#	Time	r_knee			r_shank_antsup			r_ankle			r_calc			r_5meta			r_toe			L_knee			L_shank_antsup			L_ankle			L_calc			L_5meta			L_toe			r_sh2			r_sh3			r_sh4			L_sh2			L_sh3			r_thigh1			r_thigh2			r_thigh3			r_thigh4			r_thigh5			L_thigh1			L_thigh2			L_thigh3			L_thigh4			r.ASIS			r.PSIS			L.ASIS			L.PSIS			C7			R_Shoulder			L_Shoulder			R_Sternum			L_Sternum			R_humerus			R_elbow_med			R_elbow_lat			R_forearm			R_wrist_radius			R_wrist_ulna			L_humerus			L_elbow_med			L_elbow_lat			L_forearm			L_wrist_radius			L_wrist_ulna			R_HJC			L_HJC			R_HJC_reg			L_HJC_reg			
		X1	Y1	Z1	X2	Y2	Z2	X3	Y3	Z3	X4	Y4	Z4	X5	Y5	Z5	X6	Y6	Z6	X7	Y7	Z7	X8	Y8	Z8	X9	Y9	Z9	X10	Y10	Z10	X11	Y11	Z11	X12	Y12	Z12	X13	Y13	Z13	X14	Y14	Z14	X15	Y15	Z15	X16	Y16	Z16	X17	Y17	Z17	X18	Y18	Z18	X19	Y19	Z19	X20	Y20	Z20	X21	Y21	Z21	X22	Y22	Z22	X23	Y23	Z23	X24	Y24	Z24	X25	Y25	Z25	X26	Y26	Z26	X27	Y27	Z27	X28	Y28	Z28	X29	Y29	Z29	X30	Y30	Z30	X31	Y31	Z31	X32	Y32	Z32	X33	Y33	Z33	X34	Y34	Z34	X35	Y35	Z35	X36	Y36	Z36	X37	Y37	Z37	X38	Y38	Z38	X39	Y39	Z39	X40	Y40	Z40	X41	Y41	Z41	X42	Y42	Z42	X43	Y43	Z43	X44	Y44	Z44	X45	Y45	Z45	X46	Y46	Z46	X47	Y47	Z47	X48	Y48	Z48	X49	Y49	Z49	X50	Y50	Z50	X51	Y51	Z51	

209	2.08000000	-214.80569	729.56724	-338.87040	-175.59699	621.10336	-329.66474	-232.27280	345.46620	-346.14293	-258.39273	356.31912	-410.77726	-194.90039	218.41965	-311.53064	-141.83240	207.46947	-333.52226	-212.34181	756.55978	-762.09638	-155.11080	654.69916	-745.77311	-226.33348	377.42588	-795.02887	-253.49327	383.39277	-738.74924	-182.79477	244.14270	-824.01000	-124.23169	234.04429	-791.92097	-175.55977	508.30246	-331.36856	-245.40194	618.73309	-301.15750	-257.07642	508.39394	-319.40401	-222.34586	683.68098	-798.68207	-228.63990	564.49464	-825.00684	-125.83537	1031.35772	-346.44747	-124.47076	923.63894	-333.15929	-178.19892	898.55056	-303.66479	-237.85804	1026.68492	-334.24628	-230.92138	911.92004	-317.82358	-150.59273	1051.19702	-743.69002	-139.74228	912.19867	-767.79392	-261.16356	1045.79992	-736.97490	-250.15840	905.97390	-755.60484	-76.25632	1178.75175	-410.10672	-246.28195	1258.49304	-468.65859	-84.68831	1201.45088	-658.01245	-253.12602	1271.92811	-578.88339	-218.45474	1705.27140	-505.97460	-170.58464	1734.88921	-417.89675	-154.81070	1739.42478	-604.33325	-83.98268	1663.30416	-486.20900	-82.14888	1663.73138	-516.61884	-149.32636	1786.38310	-337.92701	-85.81520	1797.93128	-139.43000	-134.66731	1852.58056	-163.06482	-71.96702	1966.77787	-169.30361	-20.84963	2048.38782	-191.43589	-12.74477	2049.97613	-149.90139	-129.00925	1796.10569	-697.47221	-58.39601	1813.78416	-886.38689	-107.75799	1861.76705	-864.21556	-69.08023	1956.41186	-885.68836	2.36448	2053.72084	-939.61353	-16.46015	2052.96167	-966.56528	-177.16173	1126.97576	-439.36261	-180.16429	1140.72597	-628.21590	-158.86990	1122.29634	-447.12469	-168.98477	1142.14881	-610.00275	
210	2.09000000	-218.69389	744.97685	-338.59936	-174.20203	636.04014	-331.17189	-229.24956	358.72330	-344.09786	-255.88369	368.50388	-408.88548	-188.09554	231.79446	-310.09990	-135.08166	222.33408	-332.65080	-213.29965	769.63522	-760.18802	-155.51512	668.71973	-745.62276	-224.12006	390.18263	-793.47242	-249.88844	394.99812	-736.43550	-179.03245	258.16605	-825.45059	-119.17320	248.99917	-795.21431	-172.30501	522.04717	-331.90683	-242.69805	632.83437	-299.46032	-253.59362	522.10416	-316.71420	-225.14960	696.56588	-795.36998	-229.85905	577.47688	-823.09668	-122.85280	1043.00505	-345.53827	-124.71312	935.21641	-332.20142	-179.90586	911.23923	-304.19609	-234.68671	1041.68649	-332.69341	-231.91659	926.65821	-319.11983	-147.61424	1064.30091	-740.50974	-136.33360	925.22970	-764.39858	-258.27028	1059.73295	-738.55109	-247.14130	919.53395	-755.62239	-74.15555	1192.84639	-406.07041	-244.46180	1270.10317	-469.21492	-82.79803	1215.19791	-656.16627	-251.39742	1283.55790	-579.57665	-216.97958	1720.28654	-504.66822	-169.25833	1746.55171	-415.17279	-153.17239	1752.63168	-605.64501	-85.17541	1675.14290	-487.38104	-82.95207	1676.05078	-517.25532	-149.15777	1794.32091	-330.98250	-94.66097	1796.54094	-129.17585	-143.16230	1852.31995	-151.58178	-79.96037	1966.07401	-151.19362	-25.16378	2048.63168	-165.61642	-20.83774	2049.78950	-130.32971	-129.27295	1806.87305	-702.28427	-67.11750	1817.24353	-893.49709	-115.87542	1866.16380	-872.71323	-77.65170	1959.46466	-899.49537	-8.94834	2054.50438	-958.08208	-27.58214	2052.55831	-985.37445	-174.77989	1140.02799	-437.82346	-176.32564	1152.84195	-626.76075	-155.93731	1134.17859	-443.70837	-166.26234	1154.20524	-607.99051	
211	2.10000000	-221.17582	758.84335	-338.37942	-174.54433	649.32113	-330.26035	-225.61622	371.17139	-343.19144	-252.14308	380.43470	-408.53939	-183.90326	244.56270	-308.11134	-130.20294	236.06689	-329.46354	-212.97862	781.77733	-758.38992	-156.13549	682.14205	-748.96809	-222.43737	402.25664	-791.73002	-246.62973	406.41374	-734.04311	-177.11561	271.27855	-826.61266	-116.42845	262.11454	-798.05341	-171.03279	535.31776	-330.69812	-243.46274	645.27549	-299.44083	-252.47695	534.34347	-316.42712	-230.61705	707.42077	-792.07377	-234.06167	588.34831	-820.13128	-120.27502	1055.09941	-345.35667	-124.01265	947.17673	-331.92425	-180.02142	924.00911	-304.84219	-231.98643	1055.58973	-332.26020	-231.64707	940.69984	-319.59883	-145.11739	1076.78030	-737.65055	-132.69772	937.85255	-761.48958	-255.86399	1072.22616	-739.23314	-243.70088	931.79654	-755.56922	-72.22667	1205.15022	-403.74768	-242.74558	1281.33693	-469.26136	-80.93017	1228.10994	-653.49672	-250.03871	1294.48257	-580.19123	-215.23717	1733.65069	-503.38686	-167.46246	1756.88867	-412.89050	-152.21185	1764.69877	-606.51355	-85.68282	1686.44520	-489.50929	-83.25223	1687.80064	-518.86055	-149.63727	1800.43482	-324.38752	-103.84990	1793.20533	-120.05665	-151.82140	1850.13333	-141.75481	-87.91999	1963.17137	-133.64019	-28.51197	2043.48238	-136.82640	-27.81384	2045.39172	-105.85186	-130.06626	1816.22203	-706.81851	-75.79641	1818.80839	-900.03892	-124.13747	1869.01085	-880.80414	-85.84079	1960.38673	-912.68057	-18.20164	2051.90653	-978.14554	-38.43643	2049.33179	-1004.16430	-172.81533	1151.86821	-436.71423	-173.10441	1164.46589	-625.67278	-153.34545	1146.67856	-440.92415	-164.13663	1166.12663	-605.05453	
212	2.11000000	-220.40153	770.48112	-338.03980	-175.96427	660.88396	-327.22906	-222.52403	381.91313	-343.30922	-248.01375	391.86353	-409.20143	-182.17822	256.55387	-306.11024	-127.46079	248.42389	-325.26727	-211.63572	792.59018	-757.03800	-156.56656	694.36789	-753.52873	-221.03861	413.51806	-789.65363	-244.18758	417.33187	-731.66476	-176.46565	283.33725	-827.02796	-115.39265	273.58902	-799.74270	-171.76035	547.43745	-327.81052	-246.58065	656.06889	-300.66076	-253.10582	545.08789	-318.11839	-235.44995	717.21800	-789.79018	-238.90040	597.78076	-816.42061	-118.19612	1067.27857	-345.06013	-121.89340	959.32232	-331.67010	-177.75044	936.27981	-304.26811	-230.03712	1067.80998	-332.20716	-229.45765	952.99667	-318.44745	-142.79481	1088.72396	-735.78870	-128.88469	949.95714	-759.38296	-253.46342	1083.34610	-739.20684	-239.89053	942.97354	-755.73863	-70.31499	1216.02519	-403.10204	-241.04816	1292.31918	-468.82989	-79.25500	1239.68229	-650.62245	-249.10452	1304.64603	-580.28534	-213.34106	1745.18004	-502.15398	-165.58556	1766.44652	-409.87697	-151.92240	1775.43122	-607.14726	-84.88488	1698.06285	-490.60062	-82.26680	1699.82690	-519.46288	-150.34625	1804.92750	-318.90171	-113.60176	1788.17761	-111.84655	-160.61357	1846.47507	-133.15551	-95.86714	1958.20806	-116.72946	-31.72924	2035.73359	-109.77993	-34.47766	2038.01855	-77.61445	-131.38594	1824.03102	-711.07286	-84.71881	1818.68803	-906.37783	-132.56985	1870.74675	-888.37253	-93.44713	1959.62251	-924.92050	-27.27526	2045.82806	-998.92466	-49.26813	2043.18995	-1023.30207	-171.08561	1162.73487	-435.76289	-170.81103	1175.28761	-624.72451	-151.00349	1159.55357	-438.72698	-162.76662	1177.56062	-601.52324	
